<?xml version="1.0" encoding="utf-8"?>
<!-- Generator: Adobe Illustrator 28.1.0, SVG Export Plug-In . SVG Version: 6.00 Build 0)  -->
<svg version="1.1" id="Layer_1" xmlns="http://www.w3.org/2000/svg" xmlns:xlink="http://www.w3.org/1999/xlink" x="0px" y="0px"
	 viewBox="0 0 950.41 1283" style="enable-background:new 0 0 950.41 1283;" xml:space="preserve">
<style type="text/css">
	.st0{fill:#FFFFFF;}
</style>
<g>
	<path d="M650.4,1283c-57.67,0-115.34,0-173.01,0c-10.39-1.3-20.85-2.24-31.17-3.96c-91.7-15.25-168.54-89.32-186.83-180.45
		c-4.76-23.7-11.31-46.5-24.51-67.06c-43.55-67.8-87-135.67-130.51-203.5c-27.42-42.74-54.53-85.68-82.44-128.1
		c-17.43-26.5-25.28-55.04-20.59-86.31c6.82-45.46,31.71-78.13,74.28-95.33c43.11-17.42,84.11-11.03,120.91,17.49
		c19.08,14.79,37.13,30.9,55.65,46.41c4.49,3.76,9.03,7.47,14.22,11.76c0-3.15,0-5.14,0-7.13c0-158.82,0-317.64,0-476.46
		c0-47.58,30.39-89.85,75.75-104.22c10.35-3.28,21.47-4.14,32.24-6.12c2.33,0,4.67,0,7,0c5.44,0.67,10.91,1.16,16.32,2.03
		c48.44,7.78,87.25,51.54,88.58,100.54c0.7,25.8,0.47,51.63,0.56,77.45c0.16,46.48,0.24,92.96,0.37,139.44
		c0,1.58,0.14,3.15,0.24,5.19c28.7-10.82,57.04-12.03,85.3-0.81c28.47,11.31,48.45,31.58,61.11,59.56
		c31.58-15.82,63.74-18.06,96.14-4.18c32.33,13.85,52.91,38.66,63.2,72.36c13.86-6.3,27.76-9.89,42.39-10.71
		c54.24-3.05,94.92,30.43,109.37,71.49c2.25,6.4,3.65,13.09,5.44,19.65c0,74.67,0,149.33,0,224c-0.28,2.8-0.71,5.6-0.83,8.41
		c-2.42,55.96-7.94,111.56-20.18,166.31c-8.45,37.79-19.79,74.6-39.14,108.47c-10.08,17.65-17.1,36.33-20.9,56.32
		c-16.88,88.75-88.63,162.41-177.04,181.39C678.55,1279.85,664.38,1281.01,650.4,1283z M332.19,386c0,92.16-0.01,184.32,0.02,276.47
		c0,10.52-3.06,19.72-11.19,26.71c-13.28,11.41-30.48,11.09-44.58-0.74c-39.83-33.4-79.52-66.96-119.5-100.17
		c-17.9-14.87-38.26-17.92-59.32-7.98c-21,9.92-31.53,27.36-31.78,50.74c-0.15,13.82,6.27,25.02,13.53,36.3
		c68.67,106.69,136.85,213.68,205.68,320.27c19.27,29.85,31.9,61.8,38.51,96.64c14.23,75.02,84.87,132.76,161.36,132.77
		c51.5,0.01,103,0.09,154.49-0.08c8.79-0.03,17.66-0.65,26.37-1.88c67.94-9.53,125.42-63.61,138.68-130.61
		c5.05-25.5,12.79-50.02,25.81-72.55c14.47-25.03,24.09-51.84,31.13-79.68c17.14-67.74,22.57-136.91,23.68-206.44
		c0.93-58.48,0.3-116.98,0.34-175.48c0.02-29.69-25.66-49.72-54.52-42.55c-21.12,5.24-34.31,22.71-34.33,45.68
		c-0.05,44.16,0.02,88.33-0.04,132.49c-0.02,13.52-8.83,25.55-21.65,30.03c-12.86,4.5-27.23,0.62-35.9-9.49
		c-6.23-7.26-8.09-15.76-8.09-25.05c0.06-66.99,0.06-133.99,0.01-200.98c-0.01-19-11.6-35.34-29.34-41.79
		c-17.59-6.4-36.96-1.07-49.15,13.65c-6.6,7.97-10.03,17.17-10.03,27.57c0,46.16,0.1,92.33-0.05,138.49
		c-0.06,19.94-14.4,34.59-33.14,34.47c-18.79-0.12-32.61-14.91-32.61-34.89c0-33.83,0.02-67.66-0.01-101.49
		c-0.03-31,0.25-62-0.28-92.98c-0.4-23.25-21.34-42-45.14-41.64c-22.57,0.34-43.76,15.84-43.44,42.88
		c0.55,47.49,0.16,94.99,0.13,142.49c0,2.99-0.12,6-0.44,8.97c-1.73,16.16-16.92,28.99-33.37,28.27
		c-17.57-0.77-31.38-14.23-31.79-31.04c-0.18-7.33-0.29-14.65-0.33-21.98c-0.14-31.82-0.27-63.65-0.35-95.48
		c-0.09-36.16-0.13-72.32-0.18-108.48c-0.06-55.99-0.09-111.99-0.18-167.98c-0.04-23.16-0.25-46.32-0.29-69.48
		c-0.02-13-4.17-24.34-14.05-32.92c-14.57-12.67-31.32-14.48-48.51-6.82c-17.03,7.58-26.08,21.51-26.11,40.3
		C332.12,202.35,332.19,294.18,332.19,386z"/>
	<path class="st0" d="M332.19,386c0-91.83-0.08-183.65,0.07-275.48c0.03-18.79,9.07-32.71,26.11-40.3
		c17.2-7.66,33.94-5.85,48.51,6.82c9.88,8.59,14.03,19.92,14.05,32.92c0.04,23.16,0.26,46.32,0.29,69.48
		c0.09,55.99,0.11,111.99,0.18,167.98c0.04,36.16,0.09,72.32,0.18,108.48c0.08,31.83,0.21,63.65,0.35,95.48
		c0.03,7.33,0.15,14.66,0.33,21.98c0.4,16.81,14.22,30.27,31.79,31.04c16.44,0.72,31.63-12.11,33.37-28.27
		c0.32-2.97,0.44-5.98,0.44-8.97c0.03-47.5,0.41-95-0.13-142.49c-0.31-27.04,20.87-42.54,43.44-42.88
		c23.8-0.36,44.74,18.39,45.14,41.64c0.53,30.99,0.26,61.99,0.28,92.98c0.03,33.83,0.01,67.66,0.01,101.49
		c0,19.99,13.83,34.78,32.61,34.89c18.74,0.12,33.08-14.53,33.14-34.47c0.15-46.16,0.05-92.32,0.05-138.49
		c0-10.4,3.43-19.6,10.03-27.57c12.19-14.72,31.56-20.05,49.15-13.65c17.74,6.45,29.33,22.79,29.34,41.79
		c0.05,66.99,0.05,133.99-0.01,200.98c-0.01,9.29,1.86,17.79,8.09,25.05c8.67,10.11,23.04,13.99,35.9,9.49
		c12.82-4.48,21.63-16.51,21.65-30.03c0.06-44.16-0.01-88.33,0.04-132.49c0.02-22.98,13.21-40.44,34.33-45.68
		c28.86-7.17,54.54,12.86,54.52,42.55c-0.04,58.49,0.59,117-0.34,175.48c-1.11,69.53-6.54,138.7-23.68,206.44
		c-7.04,27.84-16.66,54.65-31.13,79.68c-13.02,22.52-20.77,47.05-25.81,72.55c-13.26,67-70.73,121.08-138.68,130.61
		c-8.71,1.22-17.57,1.85-26.37,1.88c-51.5,0.17-103,0.09-154.49,0.08c-76.49-0.01-147.12-57.75-161.36-132.77
		c-6.61-34.84-19.24-66.79-38.51-96.64C216.23,881.02,148.04,774.03,79.37,667.34c-7.26-11.28-13.68-22.47-13.53-36.3
		c0.25-23.37,10.78-40.82,31.78-50.74c21.06-9.95,41.41-6.9,59.32,7.98c39.98,33.21,79.68,66.77,119.5,100.17
		c14.1,11.82,31.3,12.15,44.58,0.74c8.13-6.99,11.19-16.19,11.19-26.71C332.18,570.32,332.19,478.16,332.19,386z"/>
</g>
</svg>
